{"title":"Slash With Myles Kennedy and the Conspirators.Live from The Roxy","uid":11523117,"size":765346766,"categoryP":"video","categoryS":"tv_shows","magnet":"?xt=urn:btih:88c2832b044cc563c81ce639b8a21146487256b8&amp;dn=Slash+With+Myles+Kennedy+and+the+Conspirators.Live+from+The+Roxy&amp;tr=udp%3A%2F%2Ftracker.openbittorrent.com%3A80&amp;tr=udp%3A%2F%2Fopen.demonii.com%3A1337&amp;tr=udp%3A%2F%2Ftracker.coppersurfer.tk%3A6969&amp;tr=udp%3A%2F%2Fexodus.desync.com%3A6969","seeders":5,"leechers":0,"uploader":"thetorrentlord","files":-1,"time":1416502695,"description":"Grab the sample and check it out. \t\t\t\t\n\n\t\t\t\t\t\t\t\t\n\n\t\t\t\t\t\t\t\t\n\nIf you like it then go for it.\t\t\t\t\t\n\nEnjoy and and please share.\t\t\t\t\t\t\t\n\nTTLTTLTTLTTLTTLTTLTTLTTLTTLTTLTTLTTLTTLTTLTTLTTLTTLTTLTTLTTLTTLTTLTTLTTL\t\n\n\t\t\n\n\t\t\t\t\t\t\t\t\t\t\n\nSlash With Myles Kennedy and the Conspirators.Live from The Roxy-11-07-\n\n2014.480p.HDTV.x264_TTL.mp4\nFormat                           : MPEG-4\nFormat profile                   : Base Media / Version 2\nCodec ID                         : mp42\nFile size                        : 722 MiB\nDuration                         : 1h 27mn\nOverall bit rate mode            : Variable\nOverall bit rate                 : 1 151 Kbps\nEncoded date                     : UTC 2014-11-08 16:25:57\nTagged date                      : UTC 2014-11-08 16:51:11\nWriting application              : HandBrake 0.9.5 2011010300\n\nVideo\nID                               : 1\nFormat                           : AVC\nFormat/Info                      : Advanced Video Codec\nFormat profile                   : &lt;a class=&quot;__cf_email__&quot; href=&quot;/cdn-cgi/l/email-protection&quot; data-cfemail=&quot;9ed3fff7f0ded2adb0ae&quot;&gt;[email&amp;#160;protected]&lt;/a&gt;&lt;script cf-hash='f9e31' type=&quot;text/javascript&quot;&gt;\n/* &lt;![CDATA[ */!function(){try{var t=&quot;currentScript&quot;in document?document.currentScript:function(){for(var t=document.getElementsByTagName(&quot;script&quot;),e=t.length;e--;)if(t[e].getAttribute(&quot;cf-hash&quot;))return t[e]}();if(t&amp;&amp;t.previousSibling){var e,r,n,i,c=t.previousSibling,a=c.getAttribute(&quot;data-cfemail&quot;);if(a){for(e=&quot;&quot;,r=parseInt(a.substr(0,2),16),n=2;a.length-n;n+=2)i=parseInt(a.substr(n,2),16)^r,e+=String.fromCharCode(i);e=document.createTextNode(e),c.parentNode.replaceChild(e,c)}}}catch(u){}}();/* ]]&gt; */&lt;/script&gt;\nFormat settings, CABAC           : Yes\nFormat settings, ReFrames        : 4 frames\nCodec ID                         : avc1\nCodec ID/Info                    : Advanced Video Coding\nDuration                         : 1h 27mn\nBit rate mode                    : Variable\nBit rate                         : 986 Kbps\nWidth                            : 624 pixels\nHeight                           : 352 pixels\nDisplay aspect ratio             : 16:9\nFrame rate mode                  : Variable\nFrame rate                       : 29.970 fps\nMinimum frame rate               : 7.491 fps\nMaximum frame rate               : 30 000.000 fps\nColor space                      : YUV\nChroma subsampling               : 4:2:0\nBit depth                        : 8 bits\nScan type                        : Progressive\nBits/(Pixel*Frame)               : 0.150\nStream size                      : 619 MiB (86%)\nWriting library                  : x264 core 112\n\nAudio\nID                               : 2\nFormat                           : AAC\nFormat/Info                      : Advanced Audio Codec\nFormat profile                   : LC\nCodec ID                         : 40\nDuration                         : 1h 27mn\nBit rate mode                    : Variable\nBit rate                         : 160 Kbps\nMaximum bit rate                 : 198 Kbps\nChannel(s)                       : 2 channels\nChannel positions                : Front: L R\nSampling rate                    : 48.0 KHz\nCompression mode                 : Lossy\nStream size                      : 100 MiB (14%)\nLanguage                         : English\nEncoded date                     : UTC 2014-11-08 16:25:58\nTagged date                      : UTC 2014-11-08 16:51:11","torrent":{"xt":"urn:btih:88c2832b044cc563c81ce639b8a21146487256b8","amp;dn":"Slash+With+Myles+Kennedy+and+the+Conspirators.Live+from+The+Roxy","amp;tr":["udp%3A%2F%2Ftracker.openbittorrent.com%3A80","udp%3A%2F%2Fopen.demonii.com%3A1337","udp%3A%2F%2Ftracker.coppersurfer.tk%3A6969","udp%3A%2F%2Fexodus.desync.com%3A6969"],"infoHash":"88c2832b044cc563c81ce639b8a21146487256b8","infoHashBuffer":{"type":"Buffer","data":[136,194,131,43,4,76,197,99,200,28,230,57,184,162,17,70,72,114,86,184]},"announce":[],"urlList":[]}}